<?xml version="1.0" encoding="UTF-8" standalone="no"?>
<!-- Created with Inkscape (http://www.inkscape.org/) -->

<svg
   width="499.53372mm"
   height="252.41283mm"
   viewBox="0 0 499.53372 252.41283"
   version="1.1"
   id="svg1"
   xml:space="preserve"
   xmlns="http://www.w3.org/2000/svg"
   xmlns:svg="http://www.w3.org/2000/svg"><defs
     id="defs1" /><g
     id="layer1"
     transform="translate(144.60157,-21.896444)"><g
       id="g1"
       transform="matrix(0.26458333,0,0,0.26458333,-144.60118,21.896877)"><path
         transform="translate(1334,238)"
         d="M 554,15.632812 V -237.99963 l -1888.0015,-0.002 v 943.00117 l 40,4 50,4 42,2 46,1 h 19 l 44,-1 47,-3 48,-5 46,-7 35,-7 40,-10 39,-12 30,-11 26,-11 33,-16 20,-11 24,-15 20,-14 17,-13 13,-11 20,-18 18,-18 7,-8 14,-15 9,-11 12,-13 9,-11 13,-15 9,-11 13,-16 10,-13 14,-18 21,-28 14,-19 8,-11 13,-18 12,-17 13,-18 10,-14 13,-18 28,-38 22,-28 11,-13 9,-11 14,-15 7,-8 24,-24 8,-7 13,-11 13,-10 14,-10 17,-11 21,-12 16,-8 15,-7 20,-8 33,-11 36,-9 C 130.98406,-33.12188 123.8424,35.655288 554,15.632812 Z"
         fill="#f2f6fb"
         id="path2"
         style="fill:#fa5a3f;fill-opacity:1" /></g></g></svg>
