<?xml version="1.0" encoding="UTF-8" standalone="no"?>
<!-- Created with Inkscape (http://www.inkscape.org/) -->

<svg
   width="210.54726mm"
   height="175.17326mm"
   viewBox="0 0 210.54726 175.17326"
   version="1.1"
   id="svg1"
   xml:space="preserve"
   xmlns="http://www.w3.org/2000/svg"
   xmlns:svg="http://www.w3.org/2000/svg"><defs
     id="defs1" /><g
     id="layer1"
     transform="translate(0.10682729,-56.847327)"><g
       id="g1"
       transform="matrix(0.10153914,0,0,0.10153914,0.61739026,92.781192)"><path
         d="m 1773.2652,0 c 0,0 60.8818,-259.40135 191.7276,-333.061 39.5918,-22.28823 97.1028,-20.81052 97.1028,-20.81052 L 2066.4253,0 2062.0688,937.24678 2055.2669,936 c -202.5206,-48.96997 -283.0947,-64.62732 -450.3912,-90 l -43.619,-6 C 1443.222,825.6788 1358.6236,818.02106 1237.6648,816 h -68.9789 c -105.5878,1.85874 -181.0264,8.96864 -255.62745,20 l -38.54701,6 c -125.86802,23.76036 -200.247,42.99722 -323.59192,96 l -33.47502,16 c -30.15136,13.70468 -58.45805,30.7877 -87.23795,47 -83.33648,42.9628 -115.16221,150.0618 -183.36189,219.3546 C 85.838704,1389.6422 -6.0738396,1370.6501 -6.0738396,1370.6501 -6.3377128,1089.641 -8.3153078,809.37636 -6.0778193,528.75821 L 27.491835,517 l 15.215921,-4 5.071974,-2 c 64.19566,-14.50497 130.01284,-38.84676 238.38277,-38 368.97381,0 337.58133,53.59976 661.38537,62 l 12.17274,1 h 71.00759 l 4.0576,-1 37.5326,-1 C 1444.4019,513.48346 1759.3998,86.741662 1773.2652,0 Z"
         fill="#3a75eb"
         id="path1"
         style="stroke-width:1.00717" /></g></g></svg>
