<?xml version="1.0" encoding="UTF-8" standalone="no"?>
<!-- Created with Inkscape (http://www.inkscape.org/) -->

<svg
   width="245.26875mm"
   height="262.96054mm"
   viewBox="0 0 245.26875 262.96054"
   version="1.1"
   id="svg1"
   xml:space="preserve"
   xmlns="http://www.w3.org/2000/svg"
   xmlns:svg="http://www.w3.org/2000/svg"><defs
     id="defs1" /><g
     id="layer1"
     transform="translate(20.158591,-17.39896)"><g
       id="g1"
       transform="matrix(0.26458333,0,0,0.26458333,-20.952341,17.134377)"><path
         d="M 866.59272,994.86263 860,974 l -16,-54 -21,-64 -14,-41 -17,-47 -15,-40 -22,-58 -20,-52 -11,-29 -16,-44 -16,-47 -9,-29 -8,-30 -8,-35 -5,-32 -2,-20 v -46 l 3,-25 5,-24 8,-24 8,-18 10,-19 14,-21 11,-14 10,-11 7,-8 17,-17 8,-7 13,-11 17,-13 18,-13 12,-8 22,-14 27,-16 24.03516,-15 16,-11 18,-13 1.96315,-2.9971731 L 3,1 3.00592,994.86666 Z"
         fill="#fefcfc"
         id="path2"
         style="display:inline;fill:#fb5d43;fill-opacity:1" /></g></g></svg>
