<?xml version="1.0" encoding="UTF-8" standalone="no"?>
<!-- Created with Inkscape (http://www.inkscape.org/) -->

<svg
   width="508mm"
   height="123.52735mm"
   viewBox="0 0 508 123.52735"
   version="1.1"
   id="svg1"
   xml:space="preserve"
   xmlns="http://www.w3.org/2000/svg"
   xmlns:svg="http://www.w3.org/2000/svg"><defs
     id="defs1" /><g
     id="layer1"
     transform="translate(148.83432,-88.596662)"><g
       id="g1"
       transform="matrix(0.24804687,0,0,0.24804687,-148.83451,84.875978)"><path
         id="path1"
         d="m 948.00076,14.999912 -69,1.000001 -78,2 -79,3 -98.00001,5 -91,6 -75,6 -86,8 -75,8 -89,11 -72.00001,10.000001 -82.999998,13 -53.00000089762,9 V 512.99992 H 2048.0008 V 98.999914 l -11,-1 -82,-14 -80,-12 -74,-10.000001 -75,-9 -76,-8 -75,-7 -90,-7 -94,-6 -80,-4 -80,-3 -78,-2 -67,-1.000001 z"
         style="fill:#fc644b;fill-opacity:1" /></g></g></svg>
